<svg width="16" height="16" viewBox="0 0 16 16" fill="none" xmlns="http://www.w3.org/2000/svg">
  <path d="M4.66669 12.9896C5.62009 13.6278 6.76659 14 8.00002 14C9.23345 14 10.38 13.6278 11.3334 12.9896V12.3333C11.3334 11.5969 10.7364 11 10 11H6.00002C5.26364 11 4.66669 11.5969 4.66669 12.3333V12.9896ZM3.38087 11.8295C3.61641 10.5976 4.69949 9.66663 6.00002 9.66663H10C11.3005 9.66663 12.3836 10.5976 12.6192 11.8295C13.4815 10.7905 14 9.45576 14 7.99996C14 4.68625 11.3137 1.99996 8.00002 1.99996C4.68631 1.99996 2.00002 4.68625 2.00002 7.99996C2.00002 9.45576 2.5185 10.7905 3.38087 11.8295ZM8.00002 15.3333C3.94993 15.3333 0.666687 12.05 0.666687 7.99996C0.666687 3.94987 3.94993 0.666626 8.00002 0.666626C12.0501 0.666626 15.3334 3.94987 15.3334 7.99996C15.3334 12.05 12.0501 15.3333 8.00002 15.3333ZM8.00002 8.99996C6.52726 8.99996 5.33335 7.80605 5.33335 6.33329C5.33335 4.86053 6.52726 3.66663 8.00002 3.66663C9.47278 3.66663 10.6667 4.86053 10.6667 6.33329C10.6667 7.80605 9.47278 8.99996 8.00002 8.99996ZM8.00002 7.66663C8.7364 7.66663 9.33335 7.06967 9.33335 6.33329C9.33335 5.59691 8.7364 4.99996 8.00002 4.99996C7.26364 4.99996 6.66669 5.59691 6.66669 6.33329C6.66669 7.06967 7.26364 7.66663 8.00002 7.66663Z" fill="#B6B6B6"/>
</svg>
