<svg width="15" height="16" viewBox="0 0 15 16" fill="none" xmlns="http://www.w3.org/2000/svg">
  <path d="M5.25 4.625H11.25C12.9069 4.625 14.25 5.96815 14.25 7.625V12.875C14.25 14.5319 12.9069 15.875 11.25 15.875H3.75C2.09315 15.875 0.75 14.5319 0.75 12.875V7.625C0.75 5.96815 2.09315 4.625 3.75 4.625V3.875C3.75 1.80393 5.42893 0.125 7.5 0.125C8.59904 0.125 9.62256 0.601485 10.3299 1.41437C10.6018 1.72685 10.5689 2.20058 10.2564 2.47248C9.94389 2.74437 9.47016 2.71147 9.19826 2.39899C8.77291 1.91014 8.1604 1.625 7.5 1.625C6.25736 1.625 5.25 2.63236 5.25 3.875V4.625ZM3.75 6.125C2.92157 6.125 2.25 6.79657 2.25 7.625V12.875C2.25 13.7034 2.92157 14.375 3.75 14.375H11.25C12.0784 14.375 12.75 13.7034 12.75 12.875V7.625C12.75 6.79657 12.0784 6.125 11.25 6.125H3.75ZM7.5 12.875C6.05025 12.875 4.875 11.6997 4.875 10.25C4.875 8.80025 6.05025 7.625 7.5 7.625C8.94975 7.625 10.125 8.80025 10.125 10.25C10.125 11.6997 8.94975 12.875 7.5 12.875ZM7.5 11.375C8.12132 11.375 8.625 10.8713 8.625 10.25C8.625 9.62868 8.12132 9.125 7.5 9.125C6.87868 9.125 6.375 9.62868 6.375 10.25C6.375 10.8713 6.87868 11.375 7.5 11.375Z" fill="white"/>
</svg>
