<svg width="24" height="17" viewBox="0 0 24 17" fill="none" xmlns="http://www.w3.org/2000/svg">
  <path d="M14.1449 12.5C14.5752 11.0543 15.9145 10 17.5 10C19.0855 10 20.4248 11.0543 20.8551 12.5H22V10C22 9.68524 21.8518 9.38885 21.6 9.2L20 8H14C12.3431 8 11 6.65685 11 5V2H9.16228C8.30142 2 7.53714 2.55086 7.26491 3.36754L6.58114 5.41886C6.06733 6.96029 4.62481 8 3 8C2.44772 8 2 8.44772 2 9V12.5H3.64494C4.07521 11.0543 5.41449 10 7 10C8.58551 10 9.92479 11.0543 10.3551 12.5H14.1449ZM14.1449 14.5H10.3551C9.92479 15.9457 8.58551 17 7 17C5.41449 17 4.07521 15.9457 3.64494 14.5H2C0.89543 14.5 0 13.6046 0 12.5L0 9C0 7.34315 1.34315 6 3 6C3.76395 6 4.44219 5.51115 4.68377 4.78641L5.36754 2.73509C5.912 1.10172 7.44056 0 9.16228 0H14.9689C16.6045 0 18.0754 0.995804 18.6828 2.51444L19.616 4.84753C19.7523 5.18811 19.9795 5.48466 20.273 5.70475L22.8 7.6C23.5554 8.16656 24 9.05573 24 10V12.5C24 13.6046 23.1046 14.5 22 14.5H20.8551C20.4248 15.9457 19.0855 17 17.5 17C15.9145 17 14.5752 15.9457 14.1449 14.5ZM13 2V5C13 5.55228 13.4477 6 14 6H17.9505C17.8792 5.86756 17.8153 5.73081 17.7591 5.59031L16.8259 3.25722C16.5221 2.4979 15.7867 2 14.9689 2H13ZM17.5 15C18.3284 15 19 14.3284 19 13.5C19 12.6716 18.3284 12 17.5 12C16.6716 12 16 12.6716 16 13.5C16 14.3284 16.6716 15 17.5 15ZM7 15C7.82843 15 8.5 14.3284 8.5 13.5C8.5 12.6716 7.82843 12 7 12C6.17157 12 5.5 12.6716 5.5 13.5C5.5 14.3284 6.17157 15 7 15Z" fill="white"/>
</svg>
