<svg width="11" height="11" viewBox="0 0 11 11" fill="none" xmlns="http://www.w3.org/2000/svg">
  <path d="M1.73119 9.2687L3.02755 9.2687L7.10649 5.18976L5.81013 3.8934L1.73119 7.97234L1.73119 9.2687ZM0.948767 7.4584L5.48604 2.92113C5.66503 2.74214 5.95523 2.74214 6.13422 2.92113L8.07876 4.86567C8.25775 5.04466 8.25775 5.33486 8.07876 5.51385L3.54149 10.0511C3.45554 10.1371 3.33896 10.1854 3.2174 10.1854L1.27286 10.1854C1.01973 10.1854 0.814525 9.98016 0.814525 9.72703L0.814525 7.78249C0.814525 7.66093 0.862813 7.54435 0.948767 7.4584ZM7.75467 4.54158L9.05103 3.24522L7.75467 1.94886L6.45831 3.24522L7.75467 4.54158ZM5.48604 2.92113L7.43058 0.976586C7.60957 0.797595 7.89977 0.797596 8.07876 0.976586L10.0233 2.92113C10.2023 3.10012 10.2023 3.39032 10.0233 3.56931L8.07876 5.51385C7.89977 5.69284 7.60957 5.69284 7.43058 5.51385L5.48604 3.56931C5.30705 3.39032 5.30705 3.10012 5.48604 2.92113Z" fill="white"/>
</svg>
