<svg width="23" height="18" viewBox="0 0 23 18" fill="none" xmlns="http://www.w3.org/2000/svg">
  <path d="M22.5003 5.97753C22.5006 5.99281 22.5006 6.00805 22.5003 6.02324V14C22.5003 16.2091 20.7094 18 18.5003 18H4.50026C2.29112 18 0.500263 16.2091 0.500263 14V6.02325C0.499913 6.00805 0.499911 5.99281 0.500263 5.97753V4C0.500263 1.79086 2.29112 0 4.50026 0H18.5003C20.7094 0 22.5003 1.79086 22.5003 4V5.97753V5.97753ZM20.5003 5.25597V4C20.5003 2.89543 19.6048 2 18.5003 2H4.50026C3.39569 2 2.50026 2.89543 2.50026 4V5.25597L11.2129 7.86977C11.4004 7.926 11.6002 7.926 11.7876 7.86977L20.5003 5.25597ZM20.5003 7.34403L12.3623 9.78542C11.8 9.95411 11.2005 9.95411 10.6382 9.78542L2.50026 7.34403V14C2.50026 15.1046 3.39569 16 4.50026 16H18.5003C19.6048 16 20.5003 15.1046 20.5003 14V7.34403Z" fill="#555A66"/>
</svg>
