<svg width="14" height="14" viewBox="0 0 14 14" fill="none" xmlns="http://www.w3.org/2000/svg">
  <path d="M9.55284 12.3334C9.27829 13.1102 8.53746 13.6667 7.66665 13.6667C6.79583 13.6667 6.05501 13.1102 5.78045 12.3334H0.99998C0.63179 12.3334 0.333313 12.0349 0.333313 11.6667C0.333313 11.2985 0.63179 11 0.99998 11H5.78045C6.05501 10.2232 6.79583 9.66671 7.66665 9.66671C8.53746 9.66671 9.27829 10.2232 9.55284 11H13C13.3682 11 13.6666 11.2985 13.6666 11.6667C13.6666 12.0349 13.3682 12.3334 13 12.3334H9.55284ZM5.55284 7.66671C5.27829 8.4435 4.53746 9.00004 3.66665 9.00004C2.79583 9.00004 2.05501 8.4435 1.78045 7.66671H0.99998C0.63179 7.66671 0.333313 7.36823 0.333313 7.00004C0.333313 6.63185 0.63179 6.33337 0.99998 6.33337H1.78045C2.05501 5.55658 2.79583 5.00004 3.66665 5.00004C4.53746 5.00004 5.27829 5.55658 5.55284 6.33337H13C13.3682 6.33337 13.6666 6.63185 13.6666 7.00004C13.6666 7.36823 13.3682 7.66671 13 7.66671H5.55284ZM12.2195 3.00004C11.945 3.77684 11.2041 4.33337 10.3333 4.33337C9.4625 4.33337 8.72167 3.77684 8.44712 3.00004H0.99998C0.63179 3.00004 0.333313 2.70156 0.333313 2.33337C0.333313 1.96518 0.63179 1.66671 0.99998 1.66671H8.44712C8.72167 0.889912 9.4625 0.333374 10.3333 0.333374C11.2041 0.333374 11.945 0.889912 12.2195 1.66671H13C13.3682 1.66671 13.6666 1.96518 13.6666 2.33337C13.6666 2.70156 13.3682 3.00004 13 3.00004H12.2195ZM10.3333 3.00004C10.7015 3.00004 11 2.70156 11 2.33337C11 1.96518 10.7015 1.66671 10.3333 1.66671C9.96512 1.66671 9.66665 1.96518 9.66665 2.33337C9.66665 2.70156 9.96512 3.00004 10.3333 3.00004ZM3.66665 7.66671C4.03484 7.66671 4.33331 7.36823 4.33331 7.00004C4.33331 6.63185 4.03484 6.33337 3.66665 6.33337C3.29846 6.33337 2.99998 6.63185 2.99998 7.00004C2.99998 7.36823 3.29846 7.66671 3.66665 7.66671ZM7.66665 12.3334C8.03484 12.3334 8.33331 12.0349 8.33331 11.6667C8.33331 11.2985 8.03484 11 7.66665 11C7.29846 11 6.99998 11.2985 6.99998 11.6667C6.99998 12.0349 7.29846 12.3334 7.66665 12.3334Z" fill="#B6B6B6"/>
</svg>
