<svg width="18" height="22" viewBox="0 0 18 22" fill="none" xmlns="http://www.w3.org/2000/svg">
  <path d="M14 6.5C16.2091 6.5 18 8.29086 18 10.5V17.5C18 19.7091 16.2091 21.5 14 21.5H4C1.79086 21.5 0 19.7091 0 17.5V10.5C0 8.29086 1.79086 6.5 4 6.5V5.5C4 2.73858 6.23858 0.5 9 0.5C11.7614 0.5 14 2.73858 14 5.5V6.5ZM4 8.5C2.89543 8.5 2 9.39543 2 10.5V17.5C2 18.6046 2.89543 19.5 4 19.5H14C15.1046 19.5 16 18.6046 16 17.5V10.5C16 9.39543 15.1046 8.5 14 8.5H4ZM12 6.5V5.5C12 3.84315 10.6569 2.5 9 2.5C7.34315 2.5 6 3.84315 6 5.5V6.5H12ZM9 17.5C7.067 17.5 5.5 15.933 5.5 14C5.5 12.067 7.067 10.5 9 10.5C10.933 10.5 12.5 12.067 12.5 14C12.5 15.933 10.933 17.5 9 17.5ZM9 15.5C9.82843 15.5 10.5 14.8284 10.5 14C10.5 13.1716 9.82843 12.5 9 12.5C8.17157 12.5 7.5 13.1716 7.5 14C7.5 14.8284 8.17157 15.5 9 15.5Z" fill="#555A66"/>
</svg>
