<svg width="30" height="36" viewBox="0 0 30 36" fill="none" xmlns="http://www.w3.org/2000/svg">
  <path d="M10 10.5H23.3333C27.0152 10.5 30 13.4848 30 17.1667V28.8333C30 32.5152 27.0152 35.5 23.3333 35.5H6.66667C2.98477 35.5 0 32.5152 0 28.8333V17.1667C0 13.4848 2.98477 10.5 6.66667 10.5V8.83333C6.66667 4.23096 10.3976 0.5 15 0.5C17.4423 0.5 19.7168 1.55886 21.2886 3.36526C21.8928 4.05967 21.8197 5.1124 21.1253 5.71662C20.4309 6.32083 19.3781 6.24772 18.7739 5.55331C17.8287 4.46698 16.4676 3.83333 15 3.83333C12.2386 3.83333 10 6.07191 10 8.83333V10.5ZM6.66667 13.8333C4.82572 13.8333 3.33333 15.3257 3.33333 17.1667V28.8333C3.33333 30.6743 4.82572 32.1667 6.66667 32.1667H23.3333C25.1743 32.1667 26.6667 30.6743 26.6667 28.8333V17.1667C26.6667 15.3257 25.1743 13.8333 23.3333 13.8333H6.66667ZM15 28.8333C11.7783 28.8333 9.16667 26.2217 9.16667 23C9.16667 19.7783 11.7783 17.1667 15 17.1667C18.2217 17.1667 20.8333 19.7783 20.8333 23C20.8333 26.2217 18.2217 28.8333 15 28.8333ZM15 25.5C16.3807 25.5 17.5 24.3807 17.5 23C17.5 21.6193 16.3807 20.5 15 20.5C13.6193 20.5 12.5 21.6193 12.5 23C12.5 24.3807 13.6193 25.5 15 25.5Z" fill="#383B43"/>
</svg>
