<svg width="14" height="16" viewBox="0 0 14 16" fill="none" xmlns="http://www.w3.org/2000/svg">
  <path d="M9.62013 13C9.45609 14.3154 8.33396 15.3333 6.97409 15.3333C5.61422 15.3333 4.49209 14.3154 4.32805 13H1.66665C0.930267 13 0.333313 12.403 0.333313 11.6666C0.333313 11.3711 0.431463 11.084 0.612348 10.8504L1.64074 9.52205V5.99996C1.64074 3.05444 4.02856 0.666626 6.97407 0.666626C9.91959 0.666626 12.3074 3.05444 12.3074 5.99996V9.52205L13.3358 10.8504C13.7866 11.4327 13.68 12.2701 13.0977 12.7209C12.8641 12.9018 12.577 13 12.2815 13H9.62013ZM8.26542 13H5.68276C5.83078 13.575 6.35281 14 6.97409 14C7.59537 14 8.1174 13.575 8.26542 13ZM2.97407 5.99996V9.74996C2.97407 9.8977 2.925 10.0413 2.83456 10.1581L1.66665 11.6666H12.2815L11.1136 10.1581C11.0232 10.0413 10.9741 9.8977 10.9741 9.74996V5.99996C10.9741 3.79082 9.18321 1.99996 6.97407 1.99996C4.76494 1.99996 2.97407 3.79082 2.97407 5.99996Z" fill="#B6B6B6"/>
</svg>
