<svg width="22" height="22" viewBox="0 0 22 22" fill="none" xmlns="http://www.w3.org/2000/svg">
  <path d="M7.63396 0.669402C8.15519 0.486814 8.72575 0.761337 8.90834 1.28257C9.09092 1.8038 8.8164 2.37435 8.29517 2.55694C8.02154 2.65279 7.75338 2.76227 7.49151 2.88491C4.46405 4.30281 2.5 7.35504 2.5 10.7844C2.5 15.5977 6.40656 19.5 11.2261 19.5C14.9682 19.5 18.2662 17.1031 19.4747 13.6142C19.6555 13.0923 20.2251 12.8158 20.7469 12.9966C21.2688 13.1773 21.5453 13.7469 21.3645 14.2688C19.8796 18.5557 15.8285 21.5 11.2261 21.5C5.30247 21.5 0.5 16.7027 0.5 10.7844C0.5 6.57475 2.91676 2.81899 6.64325 1.07371C6.96606 0.922526 7.29665 0.787562 7.63396 0.669402ZM11 1C11 0.447715 11.4477 0 12 0C17.5228 0 22 4.47715 22 10C22 10.5523 21.5523 11 21 11H12C11.4477 11 11 10.5523 11 10V1ZM13 9H19.9381C19.4869 5.38128 16.6187 2.51314 13 2.06189V9Z" fill="#B6B6B6"/>
</svg>
