<svg width="37" height="34" viewBox="0 0 37 34" fill="none" xmlns="http://www.w3.org/2000/svg">
  <path d="M22.7435 2.92471L35.4393 26.0079C36.7701 28.4275 35.8874 31.4678 33.4678 32.7986C32.7296 33.2046 31.9007 33.4175 31.0582 33.4175H5.66667C2.90525 33.4175 0.666672 31.1789 0.666672 28.4175C0.666672 27.575 0.879568 26.7461 1.28559 26.0079L13.9814 2.92471C15.3121 0.505107 18.3524 -0.377557 20.772 0.953225C21.6028 1.41016 22.2866 2.09391 22.7435 2.92471ZM19.8228 4.53111C19.6705 4.25417 19.4426 4.02626 19.1656 3.87394C18.3591 3.43035 17.3457 3.72457 16.9021 4.53111L4.20631 27.6143C4.07097 27.8604 4 28.1367 4 28.4175C4 29.338 4.7462 30.0842 5.66667 30.0842H31.0582C31.339 30.0842 31.6153 30.0132 31.8614 29.8779C32.6679 29.4343 32.9622 28.4208 32.5186 27.6143L19.8228 4.53111ZM16.6958 12.1675C16.6958 11.247 17.442 10.5008 18.3624 10.5008C19.2829 10.5008 20.0291 11.247 20.0291 12.1675V19.6675C20.0291 20.588 19.2829 21.3342 18.3624 21.3342C17.442 21.3342 16.6958 20.588 16.6958 19.6675V12.1675ZM16.6958 25.9175C16.6958 24.997 17.442 24.2508 18.3624 24.2508C19.2829 24.2508 20.0291 24.997 20.0291 25.9175C20.0291 26.838 19.2829 27.5842 18.3624 27.5842C17.442 27.5842 16.6958 26.838 16.6958 25.9175Z" fill="black"/>
</svg>
